<?xml version="1.0" encoding="UTF-8" standalone="no"?>
<svg
   xmlns:dc="http://purl.org/dc/elements/1.1/"
   xmlns:cc="http://creativecommons.org/ns#"
   xmlns:rdf="http://www.w3.org/1999/02/22-rdf-syntax-ns#"
   xmlns:svg="http://www.w3.org/2000/svg"
   xmlns="http://www.w3.org/2000/svg"
   xmlns:sodipodi="http://sodipodi.sourceforge.net/DTD/sodipodi-0.dtd"
   xmlns:inkscape="http://www.inkscape.org/namespaces/inkscape"
   version="1.1"
   id="svg842"
   width="108.48"
   height="99.199997"
   viewBox="0 0 108.48 99.199997"
   sodipodi:docname="org-bnocl.svg"
   inkscape:version="1.0.2-2 (e86c870879, 2021-01-15)">
  <metadata
     id="metadata848">
    <rdf:RDF>
      <cc:Work
         rdf:about="">
        <dc:format>image/svg+xml</dc:format>
        <dc:type
           rdf:resource="http://purl.org/dc/dcmitype/StillImage" />
        <dc:title></dc:title>
      </cc:Work>
    </rdf:RDF>
  </metadata>
  <defs
     id="defs846" />
  <sodipodi:namedview
     pagecolor="#ffffff"
     bordercolor="#666666"
     borderopacity="1"
     objecttolerance="10"
     gridtolerance="10"
     guidetolerance="10"
     inkscape:pageopacity="0"
     inkscape:pageshadow="2"
     inkscape:window-width="1920"
     inkscape:window-height="1051"
     id="namedview844"
     showgrid="false"
     inkscape:zoom="3.0330035"
     inkscape:cx="171.73818"
     inkscape:cy="62.131451"
     inkscape:window-x="-9"
     inkscape:window-y="-9"
     inkscape:window-maximized="1"
     inkscape:current-layer="g856" />
  <g
     inkscape:groupmode="layer"
     inkscape:label="Image"
     id="g850">
    <g
       id="g856"
       transform="translate(-121.69776,15.387073)">
      <g
         id="g957"
         transform="translate(-0.4958314,-1.9532137)">
        <path
           id="path862"
           style="fill:#f2c30c;stroke-width:0.32"
           d="m 60.078125,11.431641 c -4.029351,-0.01095 -7.815514,1.337969 -11.239048,3.056181 -1.03207,0.517975 -2.148761,1.211023 -2.508453,0.789394 -0.266014,0.29496 0.152055,-0.613104 -0.164608,-0.345575 l -6.333281,5.419811 c -0.361608,0.128209 0.151591,0.150303 -0.03338,0.284529 0.863811,-0.360113 0.78893,-0.311609 0,0 -0.117983,0.0466 0.174906,0.376036 0.190331,0.441034 0.04933,0.207872 -0.647774,1.917835 -1.449614,3.321214 -0.80183,1.403379 -0.937384,3.600295 -1.409714,5.008295 -0.77705,2.316365 -1.17558,2.792985 -1.23488,7.562192 -0.0469,3.773613 0.618623,6.201142 0.269577,6.250727 L 34.125,46.277344 h 9.935547 c 6.654016,0 12.096628,4.975296 12.845703,11.421875 h 18.265625 c 0.202767,-0.164305 0.35462,-0.294187 0.603516,-0.490235 8.66586,-6.825834 12.098988,-18.118628 8.580078,-28.222656 -0.58382,-1.676325 -1.961101,-3.439217 -2.204533,-4.019135 -0.38357,-0.913801 -1.162014,-0.86819 -0.749852,-1.128796 0.04023,-0.02544 0.01476,-0.248697 0.06689,-0.272477 l -0.656995,-0.989113 c -0.436975,0.21637 0.12397,-0.58176 0.07964,-0.643217 -0.06137,-0.08513 -0.790674,-0.970727 -1.621094,-1.966797 -0.83042,-0.996071 -2.33403,-1.68416 -2.33403,-1.782215 0,-0.0617 0.849104,-0.820658 1.243345,-1.296738 l -0.866714,-1.187214 c -0.222424,0.121252 -0.604359,0.660415 -0.805478,0.796898 -1.17872,0.799899 -1.358005,-0.312345 -2.209775,-0.91354 -3.86415,-2.72738 -9.038156,-4.13826 -14.21875,-4.152343 z m 0.214844,2.880859 c 3.231832,-0.02345 6.153829,0.339926 6.326887,0.953435 1.64566,5.834162 2.109198,8.014562 1.571898,8.014562 -0.17559,0 -1.027992,-1.290315 -1.680712,-1.905979 -1.47717,-1.39331 -2.017707,-1.813897 -2.214186,-1.378849 -0.255301,0.565293 -2.060371,-0.298403 -4.124981,-0.298403 -1.45119,0 -3.513251,0.226957 -4.582031,0.503906 -1.5873,0.411311 -2.226327,1.100666 -2.837117,0.773786 -0.64411,-0.34472 -0.673799,-0.419782 -1.485459,0.180306 -1.18796,0.878296 -2.65214,0.709621 -3.75174,-0.155324 -2.94859,-2.319365 3.715611,-6.293158 11.365331,-6.650333 0.478118,-0.02232 0.950419,-0.03376 1.41211,-0.03711 z m 8.441406,1.789062 c 0.513438,-0.08083 3.404453,1.328185 4.533203,2.242188 l 0.785156,0.634766 -0.1577,2.388768 c -0.149212,2.260191 -2.565118,2.559256 -3.121848,1.514445 -0.79541,-1.492732 -2.259362,-6.499955 -2.109124,-6.743057 0.01187,-0.01921 0.03608,-0.03172 0.07031,-0.03711 z m 7.521484,5.279297 c 0.369239,-0.06319 0.779492,0.269147 1.310547,0.982422 l 0.673828,0.90625 0.120765,1.54558 c 0.115485,1.478 -3.742179,0.810596 -4.013439,0.103728 -0.08945,-0.233122 0.159113,-1.573723 0.517423,-2.409635 0.37199,-0.86781 1.021638,-1.065157 1.390876,-1.128345 z m 3.148438,3.796875 c 0.112386,0.02289 0.241446,0.159786 0.441406,0.421875 0.26066,0.341639 0.474609,0.808702 0.474609,1.039063 10e-7,0.620758 -1.239339,0.653568 -1.595799,-0.01249 -0.19532,-0.365293 -0.285467,-1.154209 -0.09333,-1.447054 0.128165,-0.195253 0.660685,-0.02428 0.773071,-0.0014 z m -37.964844,2.361328 1.759766,0.111329 c 0.968,0.06184 3.046498,-0.934101 3.087098,-0.896621 0.04065,0.03748 -1.631908,2.216841 -2.186708,3.525527 -0.87769,2.070363 -1.229631,2.844476 -1.154297,5.978515 0.105408,4.385203 1.825152,5.726989 -0.736173,4.852724 -1.104586,-0.377032 -1.236281,-1.890719 -0.998201,-7.833192 z m 39.615235,1.560547 c 0.160696,0.02196 0.27042,0.147105 0.419921,0.351563 0.8843,1.209347 1.50013,5.236601 1.31836,8.617187 -0.29765,5.535705 -2.24116,10.216187 -5.9375,14.300782 -0.94055,1.039337 -1.859762,1.888671 -2.044922,1.888671 -0.33496,10e-7 -0.272641,-0.717692 0.380859,-4.320312 0.15962,-0.88 -0.08075,-2.135276 -0.07025,-2.96757 0.0105,-0.832295 0.776996,-2.778006 1.240176,-4.145711 0.56921,-1.680819 0.894586,-3.446932 1.003906,-5.451172 l 0.249537,-3.664256 0.515373,0.287975 c 1.054326,0.589127 1.211069,-0.464862 0.09437,-1.513943 -0.448,-0.420878 -0.464747,-1.150351 -0.464747,-1.266031 0,-0.11568 0.478984,-1.157073 1.384204,-1.743619 0.971019,-0.629198 1.642886,-0.410173 1.910718,-0.373569 z m -7.705079,19.773438 c 0.184907,0.02475 0.25,0.219243 0.25,0.568359 0,0.507431 -1.372503,4.58525 -2.402343,7.136719 -0.37514,0.929412 -2.104522,0.668918 -4.919922,-0.740234 -1.42838,-0.714928 -3.967339,-1.371319 -3.967339,-1.529607 0,-0.158288 1.980101,-0.510007 2.725151,-0.710628 1.9877,-0.535229 4.13937,-1.704665 6.144532,-3.33789 1.221468,-0.9949 1.861743,-1.427974 2.169921,-1.386719 z"
           transform="translate(121.69776,-15.387073)"
           sodipodi:nodetypes="csccccsssscccsccsssscccssccsssccssssssssssccscsscscscssssscscscccsssccsssssssscccsssssssssssssssss" />
        <path
           id="path860"
           style="fill:#0a70b5;stroke-width:0.32"
           d="m 60.078125,11.431641 c -4.029351,-0.01095 -8.062794,1.255542 -11.486328,2.973754 -1.03207,0.517975 -2.499073,1.788004 -2.858765,1.36638 -0.266014,0.29496 0.687827,-1.169483 0.371164,-0.901954 l -6.621774,5.708304 c -0.176148,0.148816 0.440084,-0.117583 0.255115,0.01664 0.801991,-0.401326 -0.03534,-0.0025 0,0 0.126526,0.0091 0.422185,-0.180343 0.43761,-0.115345 0.04933,0.207872 -2.460686,5.834726 -2.995111,7.360115 -0.513337,1.465199 -1.369217,4.671767 -1.533354,6.327119 -0.182972,1.84532 -0.124642,5.492454 0.331224,7.541585 0.724263,3.122897 1.790876,3.277736 0.879038,2.685126 -1.330693,-0.864825 -3.562223,-2.260984 -3.7012,-2.735943 l 0.3091,4.619885 h 10.595703 c 7.16931,0 12.941406,5.772092 12.941406,12.941406 v 0.953125 c 5.513672,0 14.335238,0.577451 16.139187,0.133943 -0.02305,-0.123425 -0.184031,-0.808926 -0.205661,-0.869532 -0.19213,-0.538226 0.735082,-0.569386 2.839912,-2.227302 8.66586,-6.825834 12.098988,-18.118628 8.580078,-28.222656 -0.58382,-1.676325 -2.228987,-5.067142 -2.544542,-5.595543 -0.508125,-0.850863 0.228934,-0.02332 0.641096,-0.283924 0.04023,-0.02544 0.03537,-0.269303 0.0875,-0.293083 l -0.626085,0.391532 c -0.436975,0.21637 -0.978485,-1.210263 -1.022812,-1.27172 -0.06137,-0.08513 -0.790674,-0.970727 -1.621094,-1.966797 -0.83042,-0.996071 -1.911594,-1.941743 -1.911594,-2.039798 0,-0.0617 0.426663,-0.563038 0.820904,-1.039118 L 77.14728,15.391526 c -0.222424,0.121252 -0.192226,0.681022 -0.393345,0.817505 -1.17872,0.799899 -1.605285,-0.02385 -2.457055,-0.625047 -3.86415,-2.72738 -9.038156,-4.13826 -14.21875,-4.152343 z m 0.214844,2.880859 c 3.231542,-0.02346 5.861356,0.417523 6.09375,1.011719 2.878672,7.360326 2.258398,8.819198 0.501798,6.461905 -1.20965,-1.623296 -2.441502,-2.702435 -3.137802,-2.435238 -0.34388,0.131957 -0.234937,0.565001 1.219988,3.451848 1.04652,2.076421 1.90425,3.862892 1.90625,3.96875 0.0019,0.105858 -1.213269,0.277947 -2.699219,0.382813 -1.99035,0.14046 -3.33762,0.455618 -5.11914,1.197265 -3.78231,1.574582 -3.516589,1.719853 3.894531,2.132813 5.66999,0.315941 6.499653,0.66706 4.064453,1.722656 -4.79357,2.077887 -6.90571,3.188293 -6.78125,3.564453 0.09352,0.282628 1.201084,0.455341 3.621094,0.566407 l 3.486328,0.160156 0.5,1.355469 c 0.83301,2.25959 1.157279,2.364034 2.511719,0.804687 0.64971,-0.748 1.267084,-1.359375 1.371093,-1.359375 0.572002,0 1.288985,4.184861 1.271485,7.421875 -0.01151,2.123386 0.125109,3.728407 0.349609,4.087891 0.42141,0.674772 0.188606,1.6479 -1.396484,5.798828 -0.94447,2.473331 -0.992464,2.53125 -2.052734,2.53125 -1.56132,0 -12.116789,-5.5548 -12.511719,-6.583984 -0.08287,-0.215953 0.227163,-1.138504 0.689453,-2.050782 0.46229,-0.912282 0.796487,-1.996546 0.742187,-2.410156 -0.06154,-0.468752 -0.931865,-1.452856 -2.310547,-2.613281 -3.725909,-3.136071 -3.545796,-2.570075 -3.066406,-9.710938 0.57287,-8.533079 0.07879,-13.110825 -1.157739,-13.110825 -0.24463,0 -0.577175,0.113772 -1.024675,0.465772 -1.04893,0.825089 -2.488731,0.695752 -3.568611,-0.153679 -2.94859,-2.319365 3.540758,-6.264016 11.190478,-6.621191 0.478082,-0.02232 0.950461,-0.03376 1.41211,-0.03711 z m 8.441406,1.789062 c 0.513438,-0.08083 3.404453,1.328185 4.533203,2.242188 l 0.785156,0.634766 -0.361695,2.534479 c -0.320012,2.242391 -2.244554,2.326119 -2.801284,1.281308 -0.79541,-1.492732 -2.375931,-6.412529 -2.225693,-6.655631 0.01187,-0.01921 0.03608,-0.03172 0.07031,-0.03711 z m 7.521484,5.279297 c 0.369239,-0.06319 0.779492,0.269147 1.310547,0.982422 l 0.877823,1.459952 -1.394628,0.962736 c -1.220039,0.842214 -2.459923,0.577459 -2.731183,-0.129409 -0.08945,-0.233122 0.188255,-1.253159 0.546565,-2.089071 0.37199,-0.86781 1.021638,-1.123442 1.390876,-1.18663 z m 3.148438,3.796875 c 0.112386,0.02289 0.241446,0.159786 0.441406,0.421875 0.26066,0.341639 0.474609,0.808702 0.474609,1.039063 10e-7,0.620758 -1.151913,0.536999 -1.508373,-0.129061 -0.19532,-0.365293 -0.314608,-1.095924 -0.122468,-1.388769 0.128165,-0.195253 0.6024,0.034 0.714786,0.05689 z m -29.253906,1.033204 c 0.179284,-0.01987 0.29254,-0.01804 0.320312,0.0098 0.24777,0.247772 0.758223,13.971861 0.533203,14.335938 -0.0886,0.14336 -0.477661,0.238517 -0.863281,0.210937 -0.38561,-0.0276 -2.140391,-0.151669 -3.900391,-0.27539 -3.29947,-0.231939 -4.869603,-0.645517 -5.121093,-1.34961 -0.07953,-0.222643 -0.04015,-2.923906 0.08789,-6.003906 l 0.232422,-5.59961 1.359375,0.107422 c 0.81604,0.0645 2.579503,-0.239301 4.414063,-0.759765 1.260217,-0.357524 2.399647,-0.616173 2.9375,-0.675781 z m 30.904297,2.888671 c 0.160696,0.02196 0.27042,0.147105 0.419921,0.351563 0.8843,1.209347 1.50013,5.236602 1.31836,8.617187 -0.29765,5.535706 -2.24116,10.216187 -5.9375,14.300782 -0.94055,1.039337 -1.860522,1.888671 -2.044922,1.888671 -0.34186,0 -0.302458,-0.457599 0.388672,-4.470703 0.57716,-3.351331 -0.326688,-13.906711 -1.429688,-16.6875 -0.26238,-0.661473 0.297746,-0.865871 1.853516,-0.675781 0.90781,0.110921 1.294106,0.340754 1.503906,0.892578 0.31346,0.824455 1.113128,1.004619 1.599358,0.704111 0.57981,-0.358343 0.349274,-0.968582 -0.457186,-1.726214 -0.44,-0.413358 -0.509359,-0.961826 -0.509359,-1.077506 0,-0.11568 0.624695,-1.302771 1.529915,-1.88933 0.971019,-0.629198 1.497175,-0.264462 1.765007,-0.227858 z"
           transform="translate(121.69776,-15.387073)"
           sodipodi:nodetypes="csccccsssscsccsscccsssscccssccsssccssccssssscccsscssssssscsscssccscsscscssssssssscsscsssscccsssssssssssssssssssss" />
        <path
           style="fill:#252222;stroke-width:0.32"
           d="m 172.68221,82.714937 c -3.65447,-0.771785 -5.63523,-3.156835 -6.0691,-7.30784 -0.40134,-3.839859 1.51164,-7.395836 4.625,-8.597238 1.78782,-0.689897 5.40938,-0.75816 7.2071,-0.135849 1.60261,0.554771 3.27986,2.050355 4.1347,3.686854 0.81906,1.568025 0.97029,5.692604 0.28078,7.657744 -0.5529,1.575772 -2.05836,3.284982 -3.57482,4.05862 -1.40519,0.716871 -4.71525,1.036522 -6.60366,0.637709 z m 4.68594,-4.313549 c 1.56258,-1.663283 1.47737,-6.37126 -0.1405,-7.762886 -1.16087,-0.998541 -3.34166,-1.002121 -4.47314,-0.0073 -1.67856,1.475779 -1.70396,6.389898 -0.0404,7.820822 1.2401,1.066688 3.62882,1.04072 4.65405,-0.05059 z m 14.31921,4.280467 c -3.70218,-0.871759 -5.6935,-3.640319 -5.70707,-7.934626 -0.0101,-3.173703 0.50864,-4.75145 2.0779,-6.320707 2.36398,-2.363984 7.03036,-3.031562 10.10343,-1.445412 1.22242,0.630948 3.31605,3.103651 3.12573,3.691693 -0.0638,0.197098 -0.94921,0.571834 -1.96759,0.832746 l -1.85162,0.474387 -0.68942,-0.864621 c -1.02701,-1.28799 -2.41871,-1.675741 -3.85724,-1.074688 -1.62515,0.679034 -2.2034,2.161926 -2.04743,5.250605 0.10707,2.120163 0.21312,2.449456 1.00952,3.134486 0.64392,0.553878 1.27509,0.765443 2.28359,0.765443 1.39316,0 2.08879,-0.511773 3.2106,-2.362061 0.29728,-0.490329 0.45062,-0.490208 2.16,0.0016 1.95945,0.563895 2.2268,1.008055 1.4816,2.461376 -1.53035,2.984554 -5.27542,4.344874 -9.332,3.389658 z m -61.51194,-0.341414 c -0.0933,-0.243062 -0.13091,-3.895088 -0.0836,-8.115606 l 0.086,-7.673673 4.96,-0.09734 c 2.89539,-0.05682 5.44969,0.04548 6.13642,0.245779 2.77557,0.809539 3.80447,4.199904 1.86358,6.140793 -0.528,0.528 -0.95822,1.056922 -0.95604,1.175383 0.002,0.118464 0.49987,0.536576 1.10599,0.929139 1.36526,0.88425 1.99707,2.767885 1.45809,4.347075 -0.44299,1.297949 -0.89651,1.876499 -2.06992,2.640566 -0.81797,0.532621 -1.69103,0.628861 -6.63638,0.731562 -4.62929,0.09614 -5.72622,0.03559 -5.86408,-0.323677 z m 9.30444,-3.487622 c 0.58551,-0.48593 0.59275,-2.031376 0.0118,-2.513539 -0.69986,-0.580829 -3.61733,-0.826611 -4.1882,-0.352835 -0.59732,0.495734 -0.66355,3.071167 -0.0857,3.331766 0.6433,0.290099 3.76214,-0.05046 4.2621,-0.465392 z m -0.80106,-6.392915 c 0.85373,-0.456903 0.83329,-2.091517 -0.0319,-2.554573 -0.35799,-0.19159 -1.32999,-0.304656 -2.16,-0.251258 -1.45484,0.0936 -1.5128,0.135584 -1.61166,1.167552 -0.16221,1.693325 0.0781,1.969536 1.71354,1.969536 0.8091,0 1.74962,-0.149065 2.09005,-0.331257 z m 9.40885,9.860307 c -0.089,-0.231936 -0.12314,-3.874858 -0.0759,-8.095376 l 0.086,-7.673673 h 2.23565 2.23566 l 2.77154,3.989065 c 1.52435,2.193987 2.92593,4.040528 3.11461,4.103421 0.2292,0.0764 0.37285,-1.247655 0.43281,-3.989066 l 0.0897,-4.10342 h 2.24 2.24 v 7.999999 8 l -2.2795,0.0932 -2.27951,0.0932 -2.84049,-4.173046 c -1.56228,-2.295178 -2.9845,-4.125497 -3.1605,-4.067379 -0.1786,0.05898 -0.3907,1.861801 -0.48,4.079846 l -0.16,3.974176 -2.00414,0.09538 c -1.43399,0.06824 -2.05018,-0.02458 -2.16597,-0.326326 z m 56.49011,-7.776304 v -8.180784 l 2.32,0.09402 2.32,0.09402 0.16,6.079999 0.16,6.08 3.84,0.16 3.84,0.16 v 1.76 1.76 l -6.32,0.08676 -6.32,0.08677 z m -68.48,-11.346624 -12.96,-0.166121 -0.10227,-1.249498 c -0.0562,-0.687222 -0.0183,-1.584195 0.0844,-1.993273 0.17054,-0.679472 0.31025,-0.726839 1.61595,-0.547872 1.77036,0.242652 2.10388,-0.306554 1.28668,-2.118768 -0.30629,-0.679248 -0.45613,-1.398048 -0.33296,-1.597338 0.12961,-0.209709 0.90351,-0.331337 1.83717,-0.288736 1.25588,0.05731 1.70898,-0.05733 2.04547,-0.517517 0.38356,-0.524547 0.94661,-0.594275 4.9989,-0.619065 l 4.56665,-0.02793 0.0908,-3.24632 c 0.10873,-3.886163 -0.11683,-4.27368 -2.48751,-4.27368 -2.62511,0 -3.31982,-0.568998 -1.57639,-1.291152 1.20096,-0.497453 1.4338,-1.063913 1.70537,-4.148848 0.1162,-1.32 0.34889,-3.624 0.51708,-5.119999 0.1682,-1.496 0.5251,-4.952 0.79311,-7.68 0.26801,-2.728 0.64157,-6.308333 0.83011,-7.956298 0.2237,-1.955129 0.23393,-3.105178 0.0295,-3.309643 -0.40114,-0.401136 -1.52786,0.177255 -1.97581,1.014264 -0.18063,0.33751 -0.46444,3.237578 -0.6307,6.444598 -0.33308,6.425178 -0.50628,6.954554 -2.14117,6.544221 -1.24619,-0.312771 -2.89512,-2.16 -4.58356,-5.134765 -2.51613,-4.433027 -3.39568,-8.288013 -3.13477,-13.739374 0.14189,-2.9646344 0.20979,-3.2266628 1.01585,-3.9200001 1.17309,-1.0090499 2.65259,-0.9567808 5.96348,0.2106838 1.48754,0.5245274 3.13662,0.9543165 3.66462,0.9550867 1.88528,0.00275 5.84108,-1.2573676 11.04,-3.5167925 15.59895,-6.7792222 16.49748,-7.1390999 18.19484,-7.2872916 1.24012,-0.108272 1.79363,-0.027216 1.99948,0.2927965 0.15655,0.2433833 0.26003,1.65258262 0.22996,3.1315541 -0.0521,2.5627151 -0.0137,2.7243174 0.81837,3.4399999 1.09011,0.9376825 1.80745,0.944159 3.4292,0.03096 1.23192,-0.6936883 1.29473,-0.6985366 1.71866,-0.1326749 0.90821,1.2122886 0.99137,5.8981141 0.28825,16.2420151 l -0.20863,3.069338 1.17179,1.29704 c 0.64449,0.713369 1.96071,1.905676 2.92494,2.649574 2.04449,1.577312 2.15347,2.105965 0.93134,4.517737 -0.452,0.891968 -0.75077,1.8069 -0.66393,2.033184 0.0868,0.226282 1.42864,1.159162 2.9818,2.073063 1.55316,0.913897 3.54393,2.104835 4.42393,2.646524 1.96134,1.207312 4.37314,2.164199 5.4548,2.164199 0.91221,0 1.26084,-0.67008 2.88446,-5.543984 0.87919,-2.639229 0.90471,-2.850451 0.38998,-3.228518 -0.46548,-0.341904 -0.54779,-0.950932 -0.53162,-3.933914 0.0177,-3.267702 -0.69612,-7.453583 -1.27106,-7.453583 -0.10401,0 -0.72068,0.612 -1.37039,1.36 -1.35444,1.559347 -1.6796,1.455257 -2.51261,-0.804333 l -0.49976,-1.355667 -3.48623,-0.16 c -2.42001,-0.111066 -3.52743,-0.284518 -3.62095,-0.567146 -0.12446,-0.37616 1.98666,-1.48575 6.78023,-3.563637 2.4352,-1.055596 1.60594,-1.407196 -4.06405,-1.723137 -7.41112,-0.41296 -7.67684,-0.558503 -3.89453,-2.133085 1.78152,-0.741649 3.12965,-1.056931 5.12,-1.197391 1.48595,-0.104866 2.70146,-0.277276 2.70113,-0.383134 -3.3e-4,-0.105858 -0.70195,-1.5691097 -1.55914,-3.2516696 -2.05619,-4.0360342 -2.18459,-4.4607999 -1.34841,-4.4607999 0.37674,0 1.40546,0.7748204 2.42157,1.8238966 L 189.85776,7.31896 V 6.3287672 c 0,-0.5446041 -0.29808,-1.9552479 -0.66239,-3.1347637 -0.6576,-2.1290553 -0.63292,-3.20794422 0.068,-2.97429367 0.20092,0.0669722 0.95684,1.56398007 1.67983,3.32668437 2.45702,5.9903886 2.98555,6.0424475 4.85606,0.4783043 0.74599,-2.2190796 1.94762,-3.75094931 3.52331,-4.49160881 1.43939,-0.67659359 2.69516,-0.86515739 2.69516,-0.40469951 0,0.14147456 -0.51207,0.75347454 -1.13794,1.35999996 -1.34826,1.30659066 -4.62206,7.25351846 -4.62206,8.39606626 0,1.5966086 1.28295,1.4319526 3.57741,-0.4591347 1.64684,-1.3573193 1.92776,-1.4467858 2.47445,-0.7880611 0.4024,0.4848528 -0.079,1.1661872 -1.27681,1.807257 -1.36802,0.7321424 -0.15808,2.8666454 1.62495,2.8666454 1.04498,0 1.29949,0.542945 0.4,0.853314 -1.09469,0.377721 -3.58363,2.193619 -3.59175,2.620492 -0.005,0.238593 0.35175,0.861642 0.79175,1.384552 0.87098,1.035098 0.97243,1.397302 0.47714,1.703412 -0.55713,0.344323 -1.6219,-0.185236 -1.91326,-0.951549 -0.20654,-0.543258 -0.59831,-0.773973 -1.50166,-0.88435 -1.55577,-0.19009 -2.11563,0.01395 -1.85325,0.675423 0.69743,1.758306 1.18312,5.346261 1.33729,9.879042 0.18719,5.503603 0.0749,6.506476 -1.41936,12.673471 -0.74301,3.066528 -0.792,3.591779 -0.41792,4.48 0.23308,0.553405 0.4389,2.137754 0.4574,3.520771 l 0.0336,2.514579 1.43361,0.53217 c 1.07131,0.397683 1.61584,0.853942 2.15473,1.805421 0.87085,1.537606 0.90976,2.351062 0.17378,3.633436 -0.7636,1.330484 -0.23694,1.914135 1.19282,1.321911 1.37908,-0.571235 1.92506,-1.493482 1.92506,-3.251734 0,-1.225607 0.11945,-1.545143 0.63926,-1.710125 0.35159,-0.111591 0.7129,-0.517296 0.80292,-0.901565 0.36078,-1.540086 4.00522,-20.252687 4.96609,-25.498671 0.98035,-5.352339 1.00874,-5.732342 0.64206,-8.592424 -0.34049,-2.655804 -1.51191,-7.915535 -2.0904,-9.3859459 -0.1535,-0.3901725 0.0596,-0.6787165 0.77413,-1.0482176 0.54227,-0.280416 0.98594,-0.6137648 0.98594,-0.7407747 0,-0.1270102 -0.7467,-0.9174083 -1.65934,-1.7564406 -1.19392,-1.0976278 -1.56186,-1.6229961 -1.31179,-1.8730636 0.25006,-0.2500675 0.67888,-0.2277392 1.52883,0.079606 1.06658,0.3856806 1.22303,0.3700573 1.61128,-0.160904 0.56923,-0.7784633 0.17789,-1.7787135 -1.46237,-3.73782773 -1.5404,-1.83983807 -3.07354,-5.02507667 -2.63148,-5.46713677 0.46984,-0.4698362 1.75034,0.2646937 2.48991,1.4282774 1.21663,1.9141673 3.03496,1.3290687 3.03496,-0.9765872 0,-1.2305331 0.77733,-3.2885605 1.24211,-3.2885605 0.57533,0 0.83011,1.4065126 0.83402,4.6041467 0.003,2.6207119 0.0968,3.22295351 0.54514,3.50654774 0.74676,0.4723907 1.72473,-0.45290144 2.0839,-1.97165434 0.18998,-0.8032893 0.62258,-1.4004822 1.38552,-1.9126726 0.64609,-0.4337401 1.47949,-1.4727599 1.9958,-2.4882364 0.86636,-1.7039177 3.15627,-3.8038769 3.8836,-3.5614359 0.18546,0.06182 0.29051,0.7407778 0.23629,1.5273022 -0.10959,1.5898275 -0.72634,2.3863283 -3.51429,4.5384786 -1.46744,1.1327865 -1.68412,1.4373814 -1.53893,2.1633231 0.12997,0.6498573 -0.0393,1.0276845 -0.73334,1.63667582 -0.6168,0.5412291 -0.97592,1.24201788 -1.1349,2.21464858 -0.12793,0.7825817 -0.51945,1.8946591 -0.87005,2.4712831 -0.59586,0.9799933 -0.60361,1.1000617 -0.11879,1.84 0.28527,0.435376 0.62619,0.7915929 0.75759,0.7915929 0.13141,0 1.10009,-0.6454637 2.15262,-1.4343638 3.50988,-2.6307308 8.2322,-4.63189906 10.95371,-4.64183794 0.87728,-0.003203 1.04,0.11302976 1.04,0.74286844 0,0.4106669 -0.18,0.7606006 -0.4,0.7776307 -1.63859,0.1268423 -6.40674,1.7860252 -7.6244,2.6530774 -0.48092,0.3424438 -1.02112,0.6226252 -1.20045,0.6226252 -0.59395,0 -2.29515,1.6469984 -2.29515,2.2220342 0,0.4693482 0.3859,0.597495 2.27668,0.7560102 2.88915,0.242217 7.41151,2.3654703 8.17246,3.8369853 0.58849,1.138009 0.35318,1.426324 -0.78135,0.957353 -0.47728,-0.19729 -1.76335,-0.734719 -2.85793,-1.194285 -4.00402,-1.681114 -7.12986,-1.8546239 -7.12986,-0.395766 0,0.547465 0.35728,0.90372 1.42805,1.423937 1.93445,0.93983 3.76029,2.646989 4.67489,4.371025 0.90763,1.710898 0.61124,2.238834 -0.59333,1.05686 -2.89737,-2.843017 -3.92411,-3.754154 -4.23049,-3.754154 -0.18962,0 -0.89269,-0.576 -1.56239,-1.28 -0.82394,-0.866142 -1.49232,-1.28 -2.06718,-1.28 -0.93396,0 -0.96388,0.08339 -0.86127,2.4 l 0.0709,1.6 -1.12192,-1.075974 c -0.61706,-0.591786 -1.26347,-0.9885 -1.43646,-0.881587 -0.35589,0.219953 -0.83338,2.771117 -1.35462,7.237561 -0.63032,5.401046 -2.80208,17.560918 -4.44299,24.87661 -0.77797,3.468487 -0.82594,5.204791 -0.19239,6.963389 0.25363,0.704 0.46967,1.712 0.48008,2.24 0.0321,1.627789 0.35762,1.820653 3.57303,2.117133 3.68291,0.339584 3.72598,0.355948 3.85304,1.463968 l 0.10308,0.898899 4.14408,0.230352 c 2.27924,0.126694 4.33958,0.305376 4.57854,0.397072 0.29516,0.113264 0.40287,0.603721 0.33592,1.529648 l -0.0985,1.362928 -37.12,0.0061 c -20.416,0.0034 -42.952,-0.06863 -50.08,-0.16 z m 22.71464,-9.596108 c 0.42837,-0.800416 -0.15323,-3.638096 -3.44044,-16.786377 -1.36081,-5.443002 -2.63694,-9.949248 -2.83584,-10.013882 -0.19891,-0.06463 -0.45871,0.35673 -0.57735,0.936365 -0.27673,1.352023 -0.63418,25.36527 -0.38717,26.008995 0.14988,0.390566 0.83942,0.484886 3.54486,0.484886 3.01349,0 3.39344,-0.06476 3.69594,-0.629987 z M 148.07918,52.84432 c 0.51512,-0.376668 0.55672,-0.715177 0.35386,-2.88 l -0.22988,-2.453158 h -1.24533 c -0.94238,0 -1.35675,0.175146 -1.70339,0.72 -0.55879,0.878314 -1.27698,4.266464 -0.99953,4.715395 0.29257,0.473383 3.14121,0.397229 3.82427,-0.102237 z m 15.19795,-6.748297 c 0.21124,-0.254538 0.33429,-1.134909 0.27918,-1.997469 -0.0844,-1.321081 -0.22479,-1.602582 -0.97855,-1.962323 -0.83251,-0.397321 -0.88,-0.537392 -0.88,-2.595206 0,-1.727587 -0.14817,-2.393898 -0.72,-3.237869 -0.396,-0.584461 -0.891,-1.118755 -1.1,-1.187325 -0.67103,-0.22015 -1.70011,1.134461 -1.69815,2.235331 0.005,2.662663 1.26108,7.857219 2.10424,8.700378 0.62441,0.624409 2.48898,0.652121 2.99328,0.04448 z m -23.74359,-0.766035 c 0.37518,-0.238298 0.59675,-1.816551 1.37842,-9.818825 0.17192,-1.76 0.53596,-5.36 0.80898,-8 0.27302,-2.64 0.57874,-6.204 0.67939,-7.92 l 0.183,-3.12 h -0.9636 c -0.52999,0 -1.10559,0.18 -1.27912,0.4 -0.17354,0.22 -0.55717,2.776 -0.85252,5.68 -0.29535,2.904 -0.67876,6.504 -0.85201,8 -1.54216,13.3159 -1.57789,14.292172 -0.53832,14.710028 0.91615,0.368246 0.96093,0.370394 1.43578,0.0688 z m 3.25512,-0.324445 c 0.61812,-1.154982 5.1951,-22.730639 5.65863,-26.674538 0.26715,-2.273014 -0.15575,-2.657768 -2.5873,-2.353966 -1.9919,0.248872 -2.71879,0.791281 -2.72981,2.036981 -0.009,0.9837 -0.38082,5.705655 -1.1015,13.977143 -0.96298,11.05238 -1.10471,13.063516 -0.93949,13.330847 0.29897,0.483744 1.37882,0.282659 1.69947,-0.316467 z m 5.90386,-0.294381 c 0.0911,-0.484 0.21053,-3.616 0.26543,-6.96 0.0852,-5.192105 0.0308,-6.079999 -0.37248,-6.079999 -0.61853,0 -0.77163,0.54687 -2.06051,7.359999 -0.76522,4.045008 -0.99128,5.879098 -0.75925,6.16 0.18173,0.22 0.87734,0.4 1.54581,0.4 1.0724,0 1.23487,-0.103533 1.381,-0.88 z m 0.78855,-16.043311 c 0.15858,-1.654867 -0.47049,-1.984855 -1.06615,-0.559258 -0.54239,1.298138 -0.394,1.894122 0.43268,1.737667 0.34172,-0.06468 0.56688,-0.483536 0.63347,-1.178409 z m 8.37669,-2.214458 1.12,-0.54703 0.16,-7.837601 0.16,-7.837599 1.04,-1.9908742 c 1.7552,-3.3599858 1.53352,-3.506142 -3.01803,-1.9897929 -2.76215,0.9202112 -2.95246,1.0409491 -3.15245,1.9999999 -0.11706,0.5613671 -0.50027,1.2476112 -0.85159,1.5249865 -0.56201,0.4437237 -0.59798,0.6520107 -0.29936,1.7335157 0.30905,1.119315 0.26914,1.294308 -0.4465,1.957544 -0.43225,0.400591 -0.72161,0.916509 -0.64302,1.146484 0.0786,0.229976 0.73252,2.650137 1.45318,5.378137 1.87365,7.092502 1.85469,7.042493 2.66259,7.02463 0.38235,-0.0084 1.19918,-0.261536 1.81518,-0.5624 z m 14.84332,-1.282889 c 0.23008,-0.37226 -0.2884,-14.091092 -0.54213,-14.34482 -0.11596,-0.115955 -1.28886,0.109203 -2.60644,0.500352 -1.54062,0.457358 -3.06432,0.683887 -4.26927,0.63471 -1.03051,-0.04206 -2.04281,0.02808 -2.24957,0.15586 -0.26585,0.164308 -0.37591,1.956744 -0.37591,6.122184 0,7.008018 -0.36239,6.502965 4.9213,6.85867 1.95728,0.131767 3.8742,0.260756 4.25981,0.28664 0.38562,0.02589 0.77361,-0.07023 0.86221,-0.213596 z M 203.29776,7.5717112 c 0,-0.6099539 1.35287,-1.9805478 1.95494,-1.9805478 0.14774,0 2.29728,2.9303144 2.5604,3.439131 0.46678,0.9026361 -1.35613,-1.5848789 -2.20516,-1.4239266 -0.4786,0.090729 -1.19418,0.2672196 -1.59018,0.392201 -0.58595,0.1849322 -0.72,0.1054611 -0.72,-0.4268576 z"
           id="path858"
           sodipodi:nodetypes="sssssssscscsccccsssscsssssscscccccssscssssccssssscsssscccccccssccccccccssscscccccccccccccccccccssssssccsssssccscssscsssssscssscssscssssssssscsssssssssscssssssssssscsscsssscsssccsssssssssssssssssssssccssssssssssssssssssssssssssssssccsssssssscsscccccssssssssscsssssssssscssssssscscscssscsscsscscsssssscssscccsssscscccscssssssscssssss" />
      </g>
    </g>
  </g>
</svg>
